<svg width="35" height="20" viewBox="0 0 35 20" fill="none" xmlns="http://www.w3.org/2000/svg">
<path fill-rule="evenodd" clip-rule="evenodd" d="M18.8572 0.000320944C18.8606 0.000320944 18.8633 0.00303731 18.8633 0.00638812V0.00638812C18.8633 0.0104701 18.8673 0.0133878 18.8712 0.0122847C18.9 0.00420042 18.93 0 18.9604 0C19.0492 0 19.1343 0.0358024 19.1971 0.099531L23.8341 4.807C23.9124 4.88653 24.0407 4.88653 24.119 4.807L28.7561 0.099531C28.8188 0.0358024 28.904 0 28.9927 0C29.0232 0 29.0531 0.00420041 29.0819 0.0122847C29.0859 0.0133878 29.0898 0.01047 29.0898 0.00638811V0.00638811C29.0898 0.0030373 29.0925 0.000320944 29.0959 0.000320944H34.8C34.9105 0.000320944 35 0.089864 35 0.200321V19.8003C35 19.9108 34.9105 20.0003 34.8 20.0003H29.2898C29.1794 20.0003 29.0898 19.9108 29.0898 19.8003V8.73402C29.0898 8.55511 28.8729 8.46621 28.7473 8.59366L26.1175 11.2635C25.5274 11.8625 24.7499 12.1553 23.9766 12.1417C23.2033 12.1553 22.4257 11.8625 21.8356 11.2635L19.2058 8.59367C19.0802 8.46621 18.8633 8.55511 18.8633 8.73402V14.0901C18.8633 17.3386 16.2426 19.9749 13.0001 20.0001C13 20.0001 13 20.0002 13 20.0002V20.0002C13 20.0003 13 20.0003 12.9999 20.0003H12.9531H0.2C0.089543 20.0003 0 19.9108 0 19.8003V0.200322C0 0.089865 0.0895431 0.000320944 0.2 0.000320944H12.9531H13H18.8572ZM14 10.1446C14 10.9642 13.854 11.6223 13.5621 12.1186C13.2739 12.615 12.9333 13.0172 12.5404 13.325C11.9827 13.7752 11.2023 14.0003 10.1993 14.0003H6.2C6.08954 14.0003 6 13.9108 6 13.8003V6.20032C6 6.08986 6.08954 6.00032 6.2 6.00032H9.23368C9.72023 6.00032 10.1357 6.02726 10.48 6.08113C10.8281 6.13115 11.1406 6.20427 11.4175 6.30047C11.6945 6.39282 11.9303 6.49864 12.1249 6.61793C12.3195 6.73337 12.4936 6.85843 12.647 6.99311C12.9127 7.21629 13.1448 7.47988 13.3432 7.78387C13.5453 8.08786 13.7043 8.43995 13.8204 8.84015C13.9401 9.24034 14 9.67516 14 10.1446Z" fill="#98BF4A"/>
</svg>